<svg width="625" height="594" viewBox="0 0 625 594" fill="none" xmlns="http://www.w3.org/2000/svg">
<g clip-path="url(#clip0)">
<path opacity="0.07" d="M575.426 279.376C575.426 282.325 575.361 285.273 575.165 288.025C603.324 309.452 625 355.385 625 395.813C625 439.846 599.264 460.616 567.503 442.27C567.437 442.204 567.371 442.204 567.306 442.139L367.768 327.013C367.702 326.947 367.636 326.947 367.505 326.882C331.815 306.241 302.87 249.432 302.87 199.961C302.87 153.635 328.278 130.112 360.826 144.33C364.82 112.551 386.103 98.8568 411.775 113.731C424.087 120.873 435.416 133.388 444.256 148.459C457.091 129.391 478.965 124.542 503.718 138.827C543.338 161.629 575.426 224.598 575.426 279.376Z" fill="url(#paint0_linear)"/>
<path opacity="0.4" d="M542.683 310.828C542.683 313.776 542.618 316.726 542.422 319.477C570.581 340.904 592.257 386.836 592.257 427.265C592.257 471.297 566.52 492.069 534.759 473.721C534.694 473.656 534.628 473.656 534.563 473.59L335.024 358.464C334.959 358.399 334.893 358.399 334.762 358.333C299.072 337.693 270.126 280.883 270.126 231.412C270.126 185.087 295.536 161.563 328.083 175.783C332.077 144.003 353.36 130.309 379.031 145.183C391.343 152.325 402.672 164.84 411.513 179.911C424.348 160.843 446.221 155.994 470.976 170.279C510.595 193.081 542.683 256.05 542.683 310.828Z" fill="url(#paint1_linear)"/>
<path opacity="0.2" d="M226.774 366.917L196.389 349.356V339.069L226.774 356.63C229.263 358.071 232.865 360.954 235.942 365.41C239.282 370.193 241.639 376.221 241.639 382.773C241.639 389.982 239.806 394.109 236.27 395.289C232.995 396.403 229.132 394.502 226.709 393.127L214.2 385.919L214.135 385.853C213.087 385.198 211.384 384.609 210.009 385.002C208.896 385.329 207.652 386.443 207.652 390.44C207.652 394.437 208.896 396.927 209.944 398.368C211.254 400.203 212.957 401.513 214.004 402.038L214.135 402.103L252.314 424.185V434.472L214.332 412.522C211.712 411.146 207.979 408.263 204.705 403.676C201.169 398.696 198.681 392.34 198.746 385.264C198.746 378.253 201.169 374.648 204.705 373.665C207.979 372.749 211.712 374.059 214.332 375.697L226.709 382.839C228.477 383.887 229.852 384.346 230.703 384.019C231.359 383.822 232.668 382.839 232.668 377.598C232.668 374.256 231.555 372.027 230.573 370.521C229.393 368.817 227.757 367.507 226.774 366.917Z" fill="white"/>
<path d="M202.937 346.801C202.937 355.253 197.96 359.251 191.87 355.777C185.779 352.24 180.803 342.542 180.803 334.024C180.803 325.571 185.779 321.574 191.87 325.047C197.96 328.585 202.937 338.348 202.937 346.801Z" fill="#08BBD7"/>
<path d="M267.77 437.88C267.77 446.332 262.792 450.329 256.702 446.856C250.611 443.318 245.635 433.621 245.635 425.102C245.635 416.649 250.611 412.653 256.702 416.125C262.792 419.664 267.77 429.427 267.77 437.88Z" fill="#A2E8DD"/>
<path opacity="0.07" d="M320.093 220.207L516.488 333.63V437.617L320.027 324.195L320.093 220.207Z" fill="url(#paint2_linear)"/>
<path opacity="0.3" d="M293.833 233.313L490.227 346.735V450.723L293.833 337.3V233.313Z" fill="url(#paint3_linear)"/>
<path d="M311.448 295.234C311.448 303.62 316.424 313.253 322.515 316.791C328.605 320.329 333.583 316.398 333.583 308.01C333.583 299.624 328.605 289.992 322.515 286.453C316.424 282.915 311.448 286.846 311.448 295.234Z" fill="url(#paint4_linear)"/>
<path opacity="0.15" d="M339.15 311.418C339.15 315.284 341.442 319.805 344.324 321.443C347.14 323.082 349.432 321.247 349.432 317.381C349.432 313.515 347.14 308.993 344.258 307.355C341.442 305.717 339.15 307.552 339.15 311.418Z" fill="white"/>
<path opacity="0.15" d="M354.933 320.526C354.933 324.391 357.224 328.912 360.106 330.55C362.922 332.188 365.214 330.354 365.214 326.488C365.214 322.623 362.922 318.101 360.04 316.463C357.224 314.825 354.933 316.66 354.933 320.526Z" fill="white"/>
<path opacity="0.15" d="M440.654 338.217V397.386L432.926 392.93V333.761L440.654 338.217Z" fill="white"/>
<path opacity="0.15" d="M457.549 348.046V407.214L449.822 402.759V343.59L457.549 348.046Z" fill="white"/>
<path opacity="0.15" d="M474.51 357.874V417.043L466.783 412.587V353.419L474.51 357.874Z" fill="white"/>
<path opacity="0.07" d="M320.027 362.329L516.423 475.752V579.739L320.027 466.317V362.329Z" fill="url(#paint5_linear)"/>
<path opacity="0.3" d="M293.833 376.09L490.227 489.513V593.5L293.833 480.077V376.09Z" fill="url(#paint6_linear)"/>
<path d="M311.448 438.01C311.448 446.398 316.424 456.03 322.515 459.568C328.605 463.107 333.583 459.175 333.583 450.788C333.583 442.4 328.605 432.768 322.515 429.231C316.424 425.692 311.448 429.624 311.448 438.01Z" fill="url(#paint7_linear)"/>
<path opacity="0.15" d="M339.15 454.261C339.15 458.127 341.442 462.648 344.324 464.286C347.14 465.924 349.432 464.09 349.432 460.223C349.432 456.357 347.14 451.837 344.258 450.199C341.442 448.561 339.15 450.329 339.15 454.261Z" fill="white"/>
<path opacity="0.15" d="M354.866 463.368C354.866 467.234 357.159 471.756 360.04 473.394C362.856 475.032 365.148 473.197 365.148 469.331C365.148 465.465 362.856 460.945 359.975 459.306C357.159 457.602 354.866 459.437 354.866 463.368Z" fill="white"/>
<path opacity="0.15" d="M440.654 483.026V542.195L432.926 537.739V478.571L440.654 483.026Z" fill="white"/>
<path opacity="0.15" d="M457.549 492.855V552.023L449.822 547.568V488.399L457.549 492.855Z" fill="white"/>
<path opacity="0.15" d="M474.51 502.683V561.851L466.783 557.396V498.228L474.51 502.683Z" fill="white"/>
<path opacity="0.3" d="M119.441 79.2652L241.836 149.966V376.877L119.441 306.11V79.2652Z" fill="url(#paint8_linear)"/>
<path d="M195.013 161.432C195.013 172.768 188.464 178.141 180.409 173.423C172.354 168.706 165.805 155.732 165.805 144.397C165.805 133.061 172.354 127.688 180.409 132.405C188.464 137.123 195.013 150.097 195.013 161.432Z" fill="#DE3285"/>
<path d="M180.409 182.531C167.377 174.931 156.637 182.073 154.738 198.454C154.411 201.271 156.572 205.072 159.191 206.579L201.692 231.413C204.312 232.92 206.473 231.741 206.145 228.464C204.18 209.79 193.375 190.132 180.409 182.531Z" fill="#779CAB"/>
<path opacity="0.15" d="M143.999 226.433L216.951 268.565V277.476L143.999 235.344V226.433Z" fill="white"/>
<path opacity="0.15" d="M151.399 248.384L209.224 281.736V290.646L151.399 257.294V248.384Z" fill="white"/>
<path d="M166.133 285.863L81 236.655V262.013L166.133 311.221V285.863Z" fill="#627C85"/>
<path opacity="0.2" d="M268.227 50.5L286.433 86.2763C288.921 91.1906 288.528 96.1049 285.516 97.2843C282.504 98.4638 278.051 95.3841 275.562 90.4699L275.366 90.0111V129.719C275.366 134.24 272.223 136.075 268.294 133.847C264.364 131.554 261.221 126.115 261.221 121.594V81.8861L261.024 82.0827C258.536 84.114 254.017 82.0172 251.07 77.3649C248.058 72.7128 247.665 67.3398 250.153 65.3085L268.227 50.5Z" fill="url(#paint9_linear)"/>
<path opacity="0.2" d="M268.227 578.757L250.023 542.98C247.534 538.066 247.927 533.152 250.939 531.973C253.951 530.793 258.405 533.872 260.893 538.787L261.089 539.245V499.537C261.089 495.017 264.233 493.182 268.162 495.41C272.092 497.703 275.235 503.142 275.235 507.663V547.37L275.432 547.174C277.92 545.143 282.438 547.24 285.386 551.892C288.398 556.544 288.791 561.917 286.303 563.948L268.227 578.757Z" fill="url(#paint10_linear)"/>
</g>
<defs>
<linearGradient id="paint0_linear" x1="613.285" y1="154.247" x2="410.541" y2="346.445" gradientUnits="userSpaceOnUse">
<stop stop-color="white"/>
<stop offset="1" stop-color="white" stop-opacity="0"/>
</linearGradient>
<linearGradient id="paint1_linear" x1="580.535" y1="185.7" x2="377.791" y2="377.897" gradientUnits="userSpaceOnUse">
<stop stop-color="white"/>
<stop offset="1" stop-color="white" stop-opacity="0"/>
</linearGradient>
<linearGradient id="paint2_linear" x1="414.243" y1="228.524" x2="421.569" y2="412.462" gradientUnits="userSpaceOnUse">
<stop stop-color="white"/>
<stop offset="1" stop-color="white" stop-opacity="0"/>
</linearGradient>
<linearGradient id="paint3_linear" x1="388.047" y1="241.628" x2="395.372" y2="425.567" gradientUnits="userSpaceOnUse">
<stop stop-color="white"/>
<stop offset="1" stop-color="white" stop-opacity="0"/>
</linearGradient>
<linearGradient id="paint4_linear" x1="311.448" y1="285.153" x2="341.892" y2="306.023" gradientUnits="userSpaceOnUse">
<stop stop-color="#08BBD7"/>
<stop offset="1" stop-color="#F9495C"/>
</linearGradient>
<linearGradient id="paint5_linear" x1="414.228" y1="370.667" x2="421.554" y2="554.606" gradientUnits="userSpaceOnUse">
<stop stop-color="white"/>
<stop offset="1" stop-color="white" stop-opacity="0"/>
</linearGradient>
<linearGradient id="paint6_linear" x1="388.033" y1="384.428" x2="395.359" y2="568.366" gradientUnits="userSpaceOnUse">
<stop stop-color="white"/>
<stop offset="1" stop-color="white" stop-opacity="0"/>
</linearGradient>
<linearGradient id="paint7_linear" x1="311.448" y1="427.93" x2="337.053" y2="430.895" gradientUnits="userSpaceOnUse">
<stop stop-color="#08BBD7"/>
<stop offset="1" stop-color="#DE3285"/>
</linearGradient>
<linearGradient id="paint8_linear" x1="254.953" y1="99.2077" x2="146.211" y2="287.497" gradientUnits="userSpaceOnUse">
<stop stop-color="white"/>
<stop offset="1" stop-color="white" stop-opacity="0"/>
</linearGradient>
<linearGradient id="paint9_linear" x1="281.183" y1="86.5881" x2="247.958" y2="105.098" gradientUnits="userSpaceOnUse">
<stop stop-color="white"/>
<stop offset="1" stop-color="white" stop-opacity="0"/>
</linearGradient>
<linearGradient id="paint10_linear" x1="255.237" y1="542.693" x2="288.462" y2="524.183" gradientUnits="userSpaceOnUse">
<stop stop-color="white"/>
<stop offset="1" stop-color="white" stop-opacity="0"/>
</linearGradient>
<clipPath id="clip0">
<rect width="544" height="543" fill="white" transform="translate(81 50.5)"/>
</clipPath>
</defs>
</svg>
