<svg width="49" height="48" viewBox="0 0 49 48" fill="none" xmlns="http://www.w3.org/2000/svg">
<ellipse cx="24.3786" cy="23.6279" rx="24.3786" ry="23.6279" fill="#F9FBFC"/>
<path d="M19.639 37.2052H17.1319C16.6809 37.2052 16.4554 36.9797 16.4554 36.5287V12.2939C16.4554 11.8429 16.6809 11.6174 17.1319 11.6174H26.4438C28.3805 11.6174 29.8926 12.1745 30.9804 13.2888C32.0946 14.3765 32.6517 15.8887 32.6517 17.8253V21.1681C32.6517 24.219 31.3916 26.1424 28.8713 26.9383V27.0974L33.2884 36.4093C33.5803 36.9399 33.4078 37.2052 32.7711 37.2052H30.3039C29.6671 37.2052 29.2559 36.9797 29.0702 36.5287L24.8122 27.376H20.793C20.4746 27.376 20.3155 27.5086 20.3155 27.7739V36.5287C20.3155 36.9797 20.09 37.2052 19.639 37.2052ZM20.7532 24.1924H25.8071C27.7703 24.1924 28.7519 23.2241 28.7519 21.2875V17.9447C28.7519 15.9815 27.7703 14.9999 25.8071 14.9999H20.7532C20.4614 14.9999 20.3155 15.1326 20.3155 15.3979V23.7945C20.3155 24.0598 20.4614 24.1924 20.7532 24.1924Z" fill="url(#paint0_linear)"/>
<defs>
<linearGradient id="paint0_linear" x1="11.6462" y1="0.2052" x2="50.8933" y2="21.9599" gradientUnits="userSpaceOnUse">
<stop stop-color="#08BBD7"/>
<stop offset="1" stop-color="#F9495C"/>
</linearGradient>
</defs>
</svg>
