<svg width="200" height="51" viewBox="0 0 200 51" fill="none" xmlns="http://www.w3.org/2000/svg">
<path d="M69.9424 37H61.6254C59.901 37 58.5347 36.4959 57.5266 35.4878C56.545 34.4797 56.0542 33.1002 56.0542 31.3492V22.3557C56.0542 20.6047 56.545 19.2252 57.5266 18.2171C58.5347 17.2089 59.901 16.7049 61.6254 16.7049H65.0477C66.7721 16.7049 68.1384 17.2089 69.1465 18.2171C70.1546 19.2252 70.6587 20.6047 70.6587 22.3557V27.4096C70.6587 27.7279 70.4995 27.8871 70.1812 27.8871H58.402C58.1633 27.8871 58.0439 28.0065 58.0439 28.2452V31.3094C58.0439 32.5563 58.3622 33.5246 58.9989 34.2144C59.6357 34.8776 60.5642 35.2093 61.7846 35.2093H69.9424C70.2342 35.2093 70.3801 35.3552 70.3801 35.647V36.5623C70.3801 36.8541 70.2342 37 69.9424 37ZM58.402 26.2953H68.3108C68.5496 26.2953 68.669 26.1759 68.669 25.9372V22.3955C68.669 21.1486 68.3506 20.1935 67.7139 19.5303C67.0772 18.8405 66.1487 18.4956 64.9283 18.4956H61.7846C60.5642 18.4956 59.6357 18.8405 58.9989 19.5303C58.3622 20.1935 58.0439 21.1486 58.0439 22.3955V25.9372C58.0439 26.1759 58.1633 26.2953 58.402 26.2953ZM83.7585 37H81.2117C79.4872 37 78.121 36.4959 77.1128 35.4878C76.1312 34.4797 75.6405 33.1002 75.6405 31.3492V22.3557C75.6405 20.6047 76.1312 19.2252 77.1128 18.2171C78.121 17.2089 79.4872 16.7049 81.2117 16.7049H89.6481C89.9134 16.7049 90.046 16.864 90.046 17.1824V36.5225C90.046 36.8408 89.9134 37 89.6481 37H88.494C88.2022 37 88.0563 36.8408 88.0563 36.5225V34.9307H87.8971C87.2073 36.3102 85.8278 37 83.7585 37ZM88.0563 31.3094V18.8538C88.0563 18.615 87.9236 18.4956 87.6584 18.4956H81.3708C80.1505 18.4956 79.2219 18.8405 78.5852 19.5303C77.9485 20.22 77.6302 21.1884 77.6302 22.4353V31.2696C77.6302 32.5165 77.9485 33.4848 78.5852 34.1746C79.2219 34.8644 80.1505 35.2093 81.3708 35.2093H83.9575C85.2309 35.2093 86.2258 34.8776 86.9421 34.2144C87.6849 33.5246 88.0563 32.5563 88.0563 31.3094ZM107.355 35.647V36.5623C107.355 36.8541 107.209 37 106.917 37H101.187C99.4621 37 98.0959 36.4959 97.0878 35.4878C96.1062 34.4797 95.6154 33.1002 95.6154 31.3492V22.3557C95.6154 20.6047 96.1062 19.2252 97.0878 18.2171C98.0959 17.2089 99.4621 16.7049 101.187 16.7049H106.917C107.209 16.7049 107.355 16.8508 107.355 17.1426V18.0977C107.355 18.363 107.209 18.4956 106.917 18.4956H101.346C100.125 18.4956 99.1969 18.8405 98.5601 19.5303C97.9234 20.22 97.6051 21.1884 97.6051 22.4353V31.2696C97.6051 32.5165 97.9234 33.4848 98.5601 34.1746C99.1969 34.8644 100.125 35.2093 101.346 35.2093H106.917C107.209 35.2093 107.355 35.3552 107.355 35.647ZM113.227 37H112.073C111.807 37 111.675 36.8408 111.675 36.5225V9.50209C111.675 9.18374 111.807 9.02456 112.073 9.02456H113.227C113.518 9.02456 113.664 9.18374 113.664 9.50209V18.7742H113.823C114.566 17.3946 115.946 16.7049 117.962 16.7049H120.588C122.286 16.7049 123.626 17.2089 124.608 18.2171C125.589 19.2252 126.08 20.6047 126.08 22.3557V36.5225C126.08 36.8408 125.947 37 125.682 37H124.528C124.236 37 124.09 36.8408 124.09 36.5225V22.4353C124.09 21.1884 123.772 20.22 123.135 19.5303C122.499 18.8405 121.57 18.4956 120.35 18.4956H117.763C116.49 18.4956 115.482 18.8405 114.739 19.5303C114.022 20.1935 113.664 21.1486 113.664 22.3955V36.5225C113.664 36.8408 113.518 37 113.227 37ZM143.185 35.647V36.5623C143.185 36.8541 143.039 37 142.747 37H137.017C135.293 37 133.926 36.4959 132.918 35.4878C131.937 34.4797 131.446 33.1002 131.446 31.3492V22.3557C131.446 20.6047 131.937 19.2252 132.918 18.2171C133.926 17.2089 135.293 16.7049 137.017 16.7049H142.747C143.039 16.7049 143.185 16.8508 143.185 17.1426V18.0977C143.185 18.363 143.039 18.4956 142.747 18.4956H137.176C135.956 18.4956 135.027 18.8405 134.391 19.5303C133.754 20.22 133.436 21.1884 133.436 22.4353V31.2696C133.436 32.5165 133.754 33.4848 134.391 34.1746C135.027 34.8644 135.956 35.2093 137.176 35.2093H142.747C143.039 35.2093 143.185 35.3552 143.185 35.647ZM155.225 37H152.678C150.954 37 149.588 36.4959 148.579 35.4878C147.598 34.4797 147.107 33.1002 147.107 31.3492V22.3557C147.107 20.6047 147.598 19.2252 148.579 18.2171C149.588 17.2089 150.954 16.7049 152.678 16.7049H161.115C161.38 16.7049 161.513 16.864 161.513 17.1824V36.5225C161.513 36.8408 161.38 37 161.115 37H159.961C159.669 37 159.523 36.8408 159.523 36.5225V34.9307H159.364C158.674 36.3102 157.294 37 155.225 37ZM159.523 31.3094V18.8538C159.523 18.615 159.39 18.4956 159.125 18.4956H152.837C151.617 18.4956 150.689 18.8405 150.052 19.5303C149.415 20.22 149.097 21.1884 149.097 22.4353V31.2696C149.097 32.5165 149.415 33.4848 150.052 34.1746C150.689 34.8644 151.617 35.2093 152.837 35.2093H155.424C156.698 35.2093 157.692 34.8776 158.409 34.2144C159.152 33.5246 159.523 32.5563 159.523 31.3094ZM174.046 37H167.122C166.83 37 166.684 36.8541 166.684 36.5623V35.647C166.684 35.3817 166.83 35.249 167.122 35.249H173.847C176.235 35.249 177.429 34.3205 177.429 32.4634V31.5084C177.429 29.784 176.686 28.6564 175.2 28.1259L170.226 26.2157C168.873 25.6851 167.904 25.0617 167.321 24.3454C166.764 23.6291 166.485 22.6342 166.485 21.3608C166.485 18.2569 168.196 16.7049 171.619 16.7049H178.065C178.357 16.7049 178.503 16.8508 178.503 17.1426V18.0579C178.503 18.3232 178.357 18.4558 178.065 18.4558H171.818C170.73 18.4558 169.907 18.6946 169.35 19.1721C168.82 19.6497 168.554 20.2068 168.554 20.8435V21.7588C168.554 22.5016 168.753 23.0852 169.151 23.5097C169.576 23.9342 170.212 24.2923 171.061 24.5842L176.036 26.5739C177.415 27.0249 178.331 27.7014 178.782 28.6034C179.259 29.4789 179.498 30.7125 179.498 32.3043C179.498 33.896 179.047 35.0766 178.145 35.846C177.269 36.6153 175.903 37 174.046 37ZM185.493 18.4956H183.066C182.774 18.4956 182.628 18.363 182.628 18.0977V17.1426C182.628 16.8508 182.774 16.7049 183.066 16.7049H185.493C185.732 16.7049 185.852 16.5855 185.852 16.3467V13.1234C185.852 12.805 185.997 12.6458 186.289 12.6458H187.443C187.735 12.6458 187.881 12.805 187.881 13.1234V16.3467C187.881 16.5855 188 16.7049 188.239 16.7049H192.975C193.267 16.7049 193.412 16.8508 193.412 17.1426V18.0977C193.412 18.363 193.267 18.4956 192.975 18.4956H188.239C188 18.4956 187.881 18.615 187.881 18.8538V31.389C187.881 32.6094 188.226 33.5512 188.916 34.2144C189.605 34.8776 190.574 35.2093 191.821 35.2093H193.373C193.665 35.2093 193.81 35.3552 193.81 35.647V36.5623C193.81 36.8541 193.665 37 193.373 37H191.662C189.911 37 188.505 36.5092 187.443 35.5276C186.382 34.546 185.852 33.193 185.852 31.4686V18.8538C185.852 18.615 185.732 18.4956 185.493 18.4956Z" fill="url(#paint0_linear)"/>
<ellipse cx="24.3786" cy="25.6279" rx="24.3786" ry="23.6279" fill="url(#paint1_linear)"/>
<path d="M19.639 39.2052H17.1319C16.6809 39.2052 16.4554 38.9797 16.4554 38.5287V14.2939C16.4554 13.8429 16.6809 13.6174 17.1319 13.6174H26.4438C28.3805 13.6174 29.8926 14.1745 30.9804 15.2888C32.0946 16.3765 32.6517 17.8887 32.6517 19.8253V23.1681C32.6517 26.219 31.3916 28.1424 28.8713 28.9383V29.0974L33.2884 38.4093C33.5803 38.9399 33.4078 39.2052 32.7711 39.2052H30.3039C29.6671 39.2052 29.2559 38.9797 29.0702 38.5287L24.8122 29.376H20.793C20.4746 29.376 20.3155 29.5086 20.3155 29.7739V38.5287C20.3155 38.9797 20.09 39.2052 19.639 39.2052ZM20.7532 26.1924H25.8071C27.7703 26.1924 28.7519 25.2241 28.7519 23.2875V19.9447C28.7519 17.9815 27.7703 16.9999 25.8071 16.9999H20.7532C20.4614 16.9999 20.3155 17.1326 20.3155 17.3979V25.7945C20.3155 26.0598 20.4614 26.1924 20.7532 26.1924Z" fill="#F9FBFC"/>
<defs>
<linearGradient id="paint0_linear" x1="53.4675" y1="0" x2="84.134" y2="90.2478" gradientUnits="userSpaceOnUse">
<stop stop-color="#08BBD7"/>
<stop offset="1" stop-color="#F9495C"/>
</linearGradient>
<linearGradient id="paint1_linear" x1="0" y1="2" x2="46.766" y2="51.2235" gradientUnits="userSpaceOnUse">
<stop stop-color="#08BBD7"/>
<stop offset="1" stop-color="#F9495C"/>
</linearGradient>
</defs>
</svg>
