<svg width="1358" height="767" viewBox="0 0 1358 767" fill="none" xmlns="http://www.w3.org/2000/svg">
<path opacity="0.111111" fill-rule="evenodd" clip-rule="evenodd" d="M-175.758 12.9731C-149.6 -124.348 24.7172 -215.291 141.98 -326.537C233.937 -413.777 311.995 -505.786 435.072 -566.521C569.746 -632.978 716.796 -674.79 872.256 -686.907C1067.69 -702.139 1308.82 -749.861 1436.08 -644.538C1563.74 -538.882 1423.63 -356.552 1447.9 -210.478C1472.85 -60.3578 1636.43 68.1478 1579.39 217.787C1518.18 378.364 1352.8 538.038 1142.97 589.54C937.493 639.972 761.772 498.837 557.209 468.673C370.007 441.068 144.055 510.754 -0.409609 420.938C-147.788 329.31 -204.298 162.793 -175.758 12.9731Z" stroke="#F9FBFC" stroke-opacity="0.5" stroke-width="1.44444"/>
<path opacity="0.222222" fill-rule="evenodd" clip-rule="evenodd" d="M-168.403 0.32838C-139.658 -137.618 37.3152 -226.234 157.25 -336.31C251.304 -422.632 331.458 -514.003 456.349 -573.068C593.008 -637.698 741.681 -677.272 898.289 -686.77C1095.17 -698.711 1338.59 -742.6 1464.75 -634.225C1591.31 -525.508 1447.13 -344.188 1468.97 -196.54C1491.41 -44.801 1653.69 87.5724 1593.66 237.394C1529.25 398.168 1360.05 556.213 1148.04 604.458C940.442 651.7 766.162 506.386 560.904 472.413C373.066 441.323 144.524 507.614 0.780606 414.568C-145.862 319.645 -199.765 150.83 -168.403 0.32838Z" stroke="#F9FBFC" stroke-opacity="0.5" stroke-width="1.88889"/>
<path opacity="0.333333" fill-rule="evenodd" clip-rule="evenodd" d="M-160.811 -12.1076C-129.448 -150.632 50.1508 -236.858 172.752 -345.706C268.897 -431.065 351.149 -521.754 477.832 -579.106C616.451 -641.86 766.712 -679.155 924.422 -685.998C1122.69 -694.602 1368.34 -734.594 1493.33 -623.174C1618.71 -511.402 1470.46 -331.175 1489.81 -181.991C1509.7 -28.6749 1670.6 107.561 1607.56 257.509C1539.91 418.418 1366.9 574.752 1152.77 619.681C943.097 663.676 770.354 514.19 564.475 476.375C376.068 441.769 144.988 504.597 2.03785 408.32C-143.796 310.1 -195.028 139.025 -160.811 -12.1076Z" stroke="#F9FBFC" stroke-opacity="0.5" stroke-width="2.33333"/>
<path opacity="0.444444" fill-rule="evenodd" clip-rule="evenodd" d="M-152.984 -24.3285C-118.975 -163.383 63.2183 -247.157 188.479 -354.719C286.708 -439.069 371.058 -529.032 499.51 -584.627C640.064 -645.459 791.876 -680.43 950.641 -684.586C1150.23 -689.809 1398.05 -725.841 1521.8 -611.382C1645.94 -496.563 1493.61 -317.513 1510.42 -166.835C1527.7 -11.9821 1687.14 128.109 1621.06 278.126C1550.15 439.108 1373.34 593.648 1157.15 635.204C945.451 675.895 774.342 522.245 567.916 480.557C379.009 442.407 145.446 501.705 3.35979 402.195C-141.593 300.677 -190.088 127.383 -152.984 -24.3285Z" stroke="#F9FBFC" stroke-opacity="0.5" stroke-width="2.77778"/>
<path opacity="0.555556" fill-rule="evenodd" clip-rule="evenodd" d="M-144.927 -36.329C-108.244 -175.866 76.5109 -257.124 204.422 -363.342C304.73 -446.637 391.176 -535.831 521.372 -589.625C663.834 -648.488 817.161 -681.095 976.933 -682.527C1177.79 -684.328 1427.7 -716.338 1550.14 -598.85C1672.97 -480.991 1516.56 -303.204 1530.79 -151.073C1545.41 5.27392 1703.29 149.211 1634.15 299.238C1559.97 460.231 1379.36 612.895 1161.16 651.019C947.498 688.352 778.118 530.548 571.222 484.957C381.884 443.235 145.893 498.938 4.74355 396.195C-139.254 291.38 -184.95 115.908 -144.927 -36.329Z" stroke="#F9FBFC" stroke-opacity="0.5" stroke-width="3.22222"/>
<path opacity="0.666667" fill-rule="evenodd" clip-rule="evenodd" d="M-136.645 -48.1028C-97.259 -188.072 90.0226 -266.753 220.574 -371.568C322.952 -453.764 411.494 -542.144 543.408 -594.095C687.751 -650.941 842.554 -681.142 1003.28 -679.819C1205.34 -678.155 1457.28 -706.082 1578.34 -585.575C1699.78 -464.687 1539.29 -288.248 1550.89 -134.706C1562.82 23.0901 1719.05 170.863 1646.83 320.841C1569.34 481.781 1384.96 632.485 1164.81 667.123C949.232 701.041 781.678 539.096 574.388 489.574C384.689 444.254 146.328 496.296 6.1869 390.323C-136.781 282.212 -179.615 104.606 -136.645 -48.1028Z" stroke="#F9FBFC" stroke-opacity="0.5" stroke-width="3.66667"/>
<path opacity="0.777778" fill-rule="evenodd" clip-rule="evenodd" d="M-128.14 -59.6449C-86.0254 -199.997 103.747 -276.038 236.927 -379.393C341.368 -460.444 432.001 -547.964 565.608 -598.03C711.803 -652.812 868.043 -680.568 1029.68 -676.456C1232.88 -671.288 1486.78 -695.072 1606.39 -571.557C1726.37 -447.652 1561.8 -272.647 1570.72 -117.738C1579.9 41.4623 1734.4 193.058 1659.08 342.927C1578.27 503.75 1390.13 652.412 1168.08 683.508C950.647 713.957 785.015 547.886 577.408 494.405C387.419 445.462 146.747 493.78 7.68738 384.58C-134.178 273.176 -174.087 93.4812 -128.14 -59.6449Z" stroke="#F9FBFC" stroke-opacity="0.5" stroke-width="4.11111"/>
<path opacity="0.888889" fill-rule="evenodd" clip-rule="evenodd" d="M-119.417 -70.9492C-74.5483 -211.632 117.678 -284.973 253.475 -386.809C359.967 -466.669 452.688 -553.286 587.96 -601.424C735.978 -654.097 893.614 -679.366 1056.11 -672.435C1260.39 -663.722 1516.17 -683.306 1634.26 -556.796C1752.72 -429.888 1584.06 -256.403 1590.27 -100.172C1596.65 60.3869 1749.32 215.791 1670.89 365.49C1586.73 526.131 1394.85 672.668 1170.97 700.167C951.737 727.095 788.123 556.915 580.278 499.449C390.071 446.859 147.149 491.39 9.24244 378.967C-131.446 264.276 -168.369 82.5384 -119.417 -70.9492Z" stroke="#F9FBFC" stroke-opacity="0.5" stroke-width="4.55556"/>
<path fill-rule="evenodd" clip-rule="evenodd" d="M-110.48 -82.0102C-62.8328 -222.973 131.808 -293.552 270.208 -393.812C378.741 -472.435 473.546 -558.103 610.455 -604.271C760.263 -654.79 919.254 -677.533 1082.55 -667.753C1287.85 -655.457 1545.45 -670.782 1661.94 -541.292C1778.8 -411.395 1606.07 -239.516 1609.51 -82.0103C1613.05 79.8595 1763.81 239.055 1682.25 388.523C1594.73 548.917 1399.12 693.245 1173.46 717.095C952.497 740.449 790.997 566.179 582.993 504.703C392.641 448.445 147.53 489.125 10.8495 373.487C-128.588 255.516 -162.464 71.7825 -110.48 -82.0102Z" stroke="#F9FBFC" stroke-opacity="0.5" stroke-width="5"/>
</svg>
